PathFileType	4	(X/Y/Z)	C:/Users/opensim2020/Desktop/walking_exp_matlab/subject02_walking04_straight_02.trc	
DataRate	CameraRate	NumFrames	NumMarkers	Units	OrigDataRate	OrigDataStartFrame	OrigNumFrames	
100.00	100.00	4	42	mm	100.00	1496	220	
Frame#	Time	LFHD			RFHD			LBHD			RBHD			C7			T10			CLAV			STRN			RBAK			LSHO			LUPA			LELB			LFRM			LWRA			LWRB			LFIN			RSHO			RUPA			RELB			RFRM			RWRA			RWRB			RFIN			LASI			RASI			LPSI			RPSI			LTHI			LKNE			LTIB			LANK			LHEE			LTOE			RTHI			RKNE			RTIB			RANK			RHEE			RTOE			*39			*40			*41			
		X1	Y1	Z1	X2	Y2	Z2	X3	Y3	Z3	X4	Y4	Z4	X5	Y5	Z5	X6	Y6	Z6	X7	Y7	Z7	X8	Y8	Z8	X9	Y9	Z9	X10	Y10	Z10	X11	Y11	Z11	X12	Y12	Z12	X13	Y13	Z13	X14	Y14	Z14	X15	Y15	Z15	X16	Y16	Z16	X17	Y17	Z17	X18	Y18	Z18	X19	Y19	Z19	X20	Y20	Z20	X21	Y21	Z21	X22	Y22	Z22	X23	Y23	Z23	X24	Y24	Z24	X25	Y25	Z25	X26	Y26	Z26	X27	Y27	Z27	X28	Y28	Z28	X29	Y29	Z29	X30	Y30	Z30	X31	Y31	Z31	X32	Y32	Z32	X33	Y33	Z33	X34	Y34	Z34	X35	Y35	Z35	X36	Y36	Z36	X37	Y37	Z37	X38	Y38	Z38	X39	Y39	Z39	X40	Y40	Z40	X41	Y41	Z41	X42	Y42	Z42	

1	0.000	1417.84082	1113.72314	1721.44531	1276.91797	1129.99927	1695.92078	1443.21716	1245.10767	1651.50439	1305.04407	1272.92139	1626.16699	1370.47424	1316.50793	1514.13025	1355.18420	1382.83423	1239.50842	1388.74756	1183.09875	1434.93372	1385.24207	1139.64197	1262.77161	1302.32605	1380.09851	1341.65234	1553.80505	1256.67114	1483.80151	1656.56262	1267.27991	1296.68103	1705.18384	1248.64734	1163.99695	1754.97388	1172.44897	1064.23352	1780.98193	1048.81494	1008.82312	1791.76770	1094.65125	977.16693	1822.77234	1046.02002	945.69824	1187.65540	1230.37158	1470.08203	1103.15063	1279.46680	1285.13037	1085.25439	1284.54956	1138.73901	1064.56824	1271.01343	1019.49738	1081.02722	1238.67798	888.63635	1049.24719	1285.69116	890.88165	1044.48694	1253.52087	826.12555	1514.02283	1180.32581	962.17944	1262.63611	1130.33423	966.21497	1392.74255	1369.06104	1017.64819	1277.47327	1352.61755	1022.33875	1546.47058	1328.74805	673.23883	1512.84607	1406.73157	490.26440	1492.17761	1545.51379	354.00974	1455.83972	1644.67334	151.66161	1396.32471	1671.61108	143.51909	1488.47864	1532.94666	40.08570	1187.98401	1130.18213	670.68658	1246.92969	1080.12817	472.02518	1247.15100	1083.66846	283.23074	1294.05884	1078.76550	92.51650	1350.99792	1111.91992	41.25526	1298.11731	923.50830	47.67771	1334.80847	1222.13208	1785.79407	-3357.13452	2845.77124	1033.78406			 
2	0.010	1417.10364	1103.76392	1722.68311	1276.47107	1120.58911	1697.16418	1442.88171	1235.10950	1652.83838	1304.86255	1263.28125	1627.32336	1370.38477	1306.71497	1515.15723	1355.22607	1372.38745	1240.33667	1388.71460	1172.97913	1436.53113	1384.84009	1128.90088	1264.30554	1302.19055	1369.72314	1342.50854	1553.55408	1246.39795	1485.42505	1655.42102	1257.98584	1297.78125	1703.11536	1241.03198	1164.59668	1752.12024	1165.15515	1064.19556	1776.88867	1041.66895	1007.91351	1788.37561	1087.56897	976.70361	1819.03857	1038.82263	945.16052	1187.68359	1220.44507	1471.60510	1103.00647	1269.36865	1286.66467	1085.60889	1274.65393	1140.42432	1064.62866	1261.64539	1021.14832	1080.59021	1230.85889	889.99890	1048.81909	1277.62622	892.68921	1043.83447	1246.61438	827.40607	1512.63513	1168.70801	963.45612	1262.02039	1119.02686	968.68665	1392.87671	1357.38733	1019.02759	1277.15564	1341.65723	1024.02710	1546.59827	1315.58521	673.53790	1515.38672	1390.70386	490.61194	1494.17322	1532.50403	358.02292	1457.92688	1637.00989	158.81726	1398.13354	1663.43774	152.54070	1488.30286	1532.06433	40.00893	1188.83252	1119.50134	671.66034	1247.63013	1071.74976	472.44318	1248.18420	1079.22705	283.33011	1294.62988	1077.62866	92.60259	1351.04297	1111.47510	41.22593	1298.33557	922.76123	46.74322	1334.44812	1212.48828	1787.17334	-3360.21631	2845.07813	1033.82117			 
3	0.020	1416.47278	1093.84448	1724.13647	1275.86023	1110.97632	1698.40454	1442.58154	1225.15955	1654.24670	1304.72754	1253.58826	1628.55249	1370.41943	1297.10632	1516.14465	1354.95276	1361.91357	1241.29968	1388.35596	1162.81812	1437.97498	1384.84253	1118.32703	1266.15906	1302.31921	1359.44800	1343.41418	1553.02295	1236.24829	1487.07813	1654.66516	1248.80664	1299.36731	1700.99658	1233.51550	1165.49487	1749.19263	1158.19263	1064.22498	1772.46899	1034.98950	1006.72388	1784.81567	1081.03833	976.03693	1814.96570	1032.23938	944.20258	1187.83936	1210.84082	1473.52441	1102.87524	1258.81555	1288.38696	1086.01062	1264.35022	1142.26538	1064.77454	1252.50781	1023.10535	1080.24048	1222.74976	891.43762	1048.02515	1269.57996	894.69403	1043.36035	1239.20593	828.97101	1510.82104	1157.12939	964.92719	1261.32263	1107.79993	971.24609	1392.86121	1346.21167	1020.39355	1276.88940	1330.71729	1025.35022	1546.66479	1301.63867	673.39496	1517.98767	1373.24023	490.10480	1496.19031	1518.04944	361.81714	1459.89709	1627.71826	165.91765	1399.67188	1653.11035	161.21962	1488.32629	1530.90295	40.45071	1189.29150	1108.62866	672.16516	1248.36646	1064.63000	472.12439	1249.24622	1075.79431	283.18146	1295.31372	1076.37341	92.74017	1351.30627	1111.14294	41.31169	1298.92993	921.98480	46.30396	1333.87354	1202.72498	1788.39514	-3357.13330	2845.90039	1033.67371			 
4	0.030	1415.61487	1083.96387	1725.48633	1275.10071	1101.51208	1699.54041	1442.40393	1215.28247	1655.79089	1304.61426	1244.07092	1629.91211	1370.32117	1287.62842	1517.17236	1354.48230	1351.42346	1242.34949	1388.49768	1152.88806	1439.77539	1384.71216	1107.86450	1267.96509	1302.33923	1349.23694	1344.39282	1552.84619	1226.48022	1488.92566	1653.05298	1239.28589	1300.45764	1698.96436	1226.05652	1166.48962	1746.17188	1151.49341	1064.21350	1767.87842	1028.63440	1005.13629	1781.02600	1074.92322	975.14258	1810.91846	1026.26599	943.02448	1187.95313	1201.37061	1475.48254	1102.79114	1248.17041	1290.30237	1086.50732	1253.89539	1144.17725	1064.64758	1242.96997	1025.17029	1079.75598	1214.25549	892.99884	1047.50452	1260.91309	896.87701	1042.80945	1231.34839	830.73346	1509.43018	1146.50269	966.80634	1260.36353	1096.90247	973.57001	1392.69092	1335.42969	1021.78271	1276.63037	1319.85425	1026.42053	1546.94080	1287.11548	672.77350	1520.93713	1355.03528	489.51639	1498.66174	1501.94348	365.15814	1462.19458	1616.69543	172.82607	1401.65015	1641.63550	169.96152	1488.05676	1528.86121	40.85067	1189.87988	1098.56299	672.25641	1248.84204	1058.88538	471.63193	1250.25598	1073.46094	282.89563	1295.99146	1075.55823	92.74383	1351.65588	1111.11768	41.51251	1299.40027	921.44293	45.83369	1333.42627	1193.03308	1789.81128	-3357.09619	2845.79468	1033.79138			 
